<svg height="512" viewBox="0 0 55 61" width="512" xmlns="http://www.w3.org/2000/svg"><g id="Page-1" fill="none" fill-rule="evenodd"><g id="075---Happy-Boy" fill-rule="nonzero" transform="translate(0 -1)"><path id="Shape" d="m32 50.49v2.51c0 1.6568542-1.3431458 3-3 3h-4c-1.6548028-.0049422-2.9950578-1.3451972-3-3v-2.51c3.2986539.6799945 6.7013461.6799945 10 0z" fill="#ffe0b2"/><path id="Shape" d="m43 60h-32c0-3.8659932 3.1340068-7 7-7h4c.0049422 1.6548028 1.3451972 2.9950578 3 3h4c1.6568542 0 3-1.3431458 3-3h4c3.8659932 0 7 3.1340068 7 7z" fill="#ffdc00"/><path id="Shape" d="m40.95 55.05c-1.3102237-1.3166613-3.0925123-2.0547808-4.95-2.05l-3-.0000231c3.8659932.0000231 7 3.1340299 7 7.0000231h3.0000231c.0047577-1.8574877-.7333618-3.6397763-2.0500231-4.95z" fill="#fec108"/><path id="Shape" d="m48.72 33.79h-.01l-.44-.18.06-.33c-.4759787-2.6922137-.6237239-5.4322141-.44-8.16-1.9956217-.1947926-3.6009494-1.7258378-3.89-3.71-3.06-.68-5.35-3.43-5.18-6.21-1.8691233 2.1911149-4.5809351 3.4852235-7.46 3.56-1.94.07-4.15-.57-4.91-2.15-2.3634297 2.3627911-6.0574623 2.7505394-8.86.93-1.03 3.63-5.31 6.31-9.53 5.97-.41098332 3.5017578-1.18858125 6.9506728-2.32 10.29l-.15.05c-3.93973144-3.264649-5.51274491-8.5883906-3.98-13.47 1.15-3.37.52-7.19 2.65-10.16.98277451-1.46024516 2.32619785-2.64176877 3.9-3.43 1.67438961-.82201362 3.6139111-.91609489 5.36-.26.9522115-1.97573709 2.7264194-3.43168506 4.85-3.98 2.1889912-.59716421 4.4808164-.7165301 6.72-.35 1.9057192.1818487 3.6915772 1.01124918 5.06 2.35 1.96-1.33 4.68-1.26 7.13-.96 2.58.3 5.28.85 7.17 2.44 1.7864178 1.41496572 2.6125741 3.72277329 2.13 5.95 4.0710138 2.0746079 6.8391184 6.0429747 7.38 10.58.2622656 4.3881129-1.7086405 8.6120203-5.24 11.23z" fill="#91562d"/><path id="Shape" d="m53.96 22.56c-.5408816-4.5370253-3.3089862-8.5053921-7.38-10.58.4825741-2.22722671-.3435822-4.53503428-2.13-5.95-1.89-1.59-4.59-2.14-7.17-2.44-1.3135133-.18461344-2.6438504-.21816545-3.965-.1.3253333.02866667.647.062.965.1 2.58.3 5.28.85 7.17 2.44 1.7864178 1.41496572 2.6125741 3.72277329 2.13 5.95 4.0710138 2.0746079 6.8391184 6.0429747 7.38 10.58.2236324 3.240943-.8115616 6.4432387-2.89 8.94.073.595.155 1.188.26 1.78l-.06.33.44.18h.01c3.5313595-2.6179797 5.5022656-6.8418871 5.24-11.23z" fill="#6d4122"/><path id="Shape" d="m51.73 38.85c-.7502845 1.779142-2.7961043 2.6189108-4.58 1.88l-.95-.38c-2.6 5.02-7.83 8.81-14.2 10.14-3.2986539.6799945-6.7013461.6799945-10 0-6.38-1.33-11.61-5.13-14.2-10.15l-.95.39c-1.78389571.7389108-3.82971547-.100858-4.58-1.88-.72895194-1.7838997.10794198-3.8227157 1.88-4.58l1.44-.42.15-.05c1.13141875-3.3393272 1.90901668-6.7882422 2.32-10.29 4.22.34 8.5-2.34 9.53-5.97 2.8025377 1.8205394 6.4965703 1.4327911 8.86-.93.76 1.58 2.97 2.22 4.91 2.15 2.8790649-.0747765 5.5908767-1.3688851 7.46-3.56-.17 2.78 2.12 5.53 5.18 6.21.2890506 1.9841622 1.8943783 3.5152074 3.89 3.71-.1837239 2.7277859-.0359787 5.4677863.44 8.16l-.06.33.44.18h.01l1.13.48c1.772058.7572843 2.6089519 2.7961003 1.88 4.58z" fill="#ffe0b2"/><path id="Shape" d="m51.73 36.18c-.6-1.531-1.811-1.881-3.01-2.39h-.01l-.44-.18.06-.33c-.4759787-2.6922137-.6237239-5.4322141-.44-8.16-1.9956217-.1947926-3.6009494-1.7258378-3.89-3.71-3.06-.68-5.35-3.43-5.18-6.21-.7323652.8889801-1.6260236 1.6316599-2.634 2.189.8537515 2.0445691 2.6500759 3.5449887 4.814 4.021.2890506 1.9841622 1.8943783 3.5152074 3.89 3.71-.1837239 2.7277859-.0359787 5.4677863.44 8.16l-.06.33.44.18h.01l1.13.48c1.2770569.5335867 2.118295 1.7712316 2.1445025 3.1550315s-.7675651 2.65241-2.0235025 3.2339685c1.3053388.6293512 2.8635235.3891963 3.9187901-.6039828s1.3893499-2.5339588.8402099-3.8750172z" fill="#dfc49c"/><path id="Shape" d="m43.2 40.35c-2.972 5.738-9.544 10.1-17.7 10.6 9.134.555 16.853-3.868 20.357-9.987-.926055.0538543-1.8481401-.1588812-2.657-.613z" fill="#dfc49c"/><circle id="Oval" cx="18" cy="30" fill="#3f51b5" r="2"/><circle id="Oval" cx="36" cy="30" fill="#3f51b5" r="2"/><path id="Shape" d="m30.83 44.86c-2.3268313 1.5209671-5.3331687 1.5209671-7.66 0 .5018671-1.6968802 2.0604596-2.8612441 3.83-2.8612441s3.3281329 1.1643639 3.83 2.8612441z" fill="#e91e63"/><path id="Shape" d="m34.0000011 38-.0000011 1c.0013421 2.3634783-1.1910754 4.5677581-3.17 5.86-.5018671-1.6968802-2.0604596-2.8612441-3.83-2.8612441s-3.3281329 1.1643639-3.83 2.8612441c-1.9789246-1.2922419-3.1713421-3.4965217-3.17-5.86l-.0000011-1z" fill="#ad1457"/><g fill="#000"><path id="Shape" d="m54.956 22.474c-.5256882-4.6172054-3.2207344-8.7073168-7.256-11.012.2320563-2.37254037-.7450831-4.70264194-2.6-6.2-2.162-1.811-5.108-2.362-7.7-2.662-2.19-.269-4.911-.41-7.114.713-1.4476142-1.1786261-3.2080968-1.90853993-5.065-2.1-2.3829625-.39531436-4.8236275-.26321123-7.15.387-2.0842282.57767207-3.8857421 1.89662493-5.066 3.709-1.7713866-.41365786-3.63097398-.20899738-5.27.58-1.72903806.85803833-3.20634593 2.14930463-4.288 3.748-1.447 2.016-1.74 4.316-2.026 6.54-.12156064 1.3151217-.37517196 2.6146704-.757 3.879-1.4791689 4.6637762-.32259111 9.7628156 3.024 13.332-1.06693033.4580581-1.90801698 1.321449-2.338 2.4-.46499745 1.103342-.46499745 2.347658 0 3.451.96575959 2.2815995 3.58855306 3.3601564 5.88 2.418l.134-.055c3.0551961 4.9313844 7.9722496 8.4201269 13.636 9.675v.728h-3c-4.4162219.0049599-7.9950401 3.5837781-8 8 0 .5522847.4477153 1 1 1h32c.5522847 0 1-.4477153 1-1 0-4.418278-3.581722-8-8-8h-3v-.728c5.6641918-1.2545399 10.5812764-4.7442816 13.635-9.677l.132.053c.5442397.2287753 1.1286315.3467416 1.719.347 1.8173853.0006618 3.4585021-1.0869819 4.166-2.761.4608308-1.0938451.4640724-2.3267468.009-3.423-.3959484-.9949874-1.1431516-1.8101505-2.1-2.291 3.0476772-2.838483 4.6608498-6.8947221 4.395-11.051zm-52.4-1.774c.42697622-1.3912243.71143812-2.8222452.849-4.271.265-2.07.516-4.024 1.669-5.632.88475199-1.31689325 2.09397611-2.38353156 3.511-3.097 1.4172648-.70025825 3.0596584-.7888116 4.544-.245.2498368.1079553.5331632.1079553.783 0 .2499322-.10615888.4459467-.30939303.543-.563.842553-1.68808774 2.3808709-2.92356416 4.211-3.382 2.0503302-.56032444 4.1980815-.66747314 6.294-.314 1.6820596.15249775 3.2607501.87794698 4.472 2.055.3380513.34826245.8773677.40350126 1.279.131 1.753-1.189 4.367-1.047 6.454-.794 2.167.252 4.88.731 6.641 2.212 1.4834276 1.17137363 2.1820583 3.07743286 1.807 4.93-.1179603.4494283.0891877.9208971.5 1.138 3.7760626 1.9106016 6.3478812 5.5814657 6.854 9.783.2167495 3.5593617-1.1785894 7.0275132-3.8 9.445-.3339164-2.2856126-.4267594-4.5999843-.277-6.905.0346661-.5294905-.3502659-.9938668-.877-1.058-1.5202264-.1388494-2.7568166-1.2830955-3.013-2.788-.0289763-.443476-.3471556-.8146173-.781-.911-2.565-.57-4.539-2.89-4.4-5.173.0264606-.4344819-.2311729-.8361726-.6370976-.9933343-.4059248-.1571616-.8668857-.0336886-1.1399024.3053343-1.689899 1.9614905-4.1288633 3.1190636-6.717 3.188-1.522.06-3.411-.417-3.972-1.584-.1458521-.3036118-.4347503-.5133996-.7685952-.5581272s-.6677769.0816153-.8884048.3361272c-2.0209909 1.9817164-5.1441314 2.3017086-7.525.771-.2648475-.1885191-.6048054-.2365307-.9115016-.1287295-.3066962.1078011-.5418498.3579595-.6304984.6707295-.892 3.141-4.767 5.558-8.488 5.245-.53586061-.0381353-1.00780436.349878-1.074.883-.34987655 2.9514341-.96810185 5.864825-1.847 8.704-2.90050796-3.0298354-3.92140215-7.3985267-2.664-11.4zm37.683 35.062c.8843577.8787792 1.470278 2.0131909 1.675 3.243h-29.834c.4913893-2.8848844 2.9895674-4.9962587 5.916-5h3.146c.4545933 1.7606851 2.0395884 2.9931852 3.858 3h4c1.8220506.0062983 3.4129965-1.2321131 3.854-3h3.146c1.5908636-.0035509 3.117122.6290596 4.239 1.757zm-9.239-2.776v.019.013c-.0071468 1.0994893-.9004875 1.9870232-2 1.987h-4c-1.1045695 0-2-.8954305-2-2v-1.332c2.6488447.436006 5.3511553.436006 8 0zm19.809-14.52c-.5348881 1.2589151-1.9775472 1.859875-3.248 1.353.214-.476.411-.955.573-1.437.1141464-.3394023.038553-.7139193-.1983049-.9824741-.2368578-.2685548-.5989958-.3903475-.95-.3195s-.6375487.3235718-.7516951.6629741c-.2472672.7260562-.5512026 1.4315608-.909 2.11-3.164 6.164-10.359 10.147-18.325 10.147s-15.161-3.983-18.335-10.155c-.35452076-.6753559-.65544623-1.3775154-.9-2.1-.17590269-.5246705-.74382949-.8074027-1.2685-.6315s-.80740269.7438295-.6315 1.2685c.162.48.358.959.571 1.435-1.26989681.506526-2.71174238-.0950946-3.245-1.354-.25738086-.6137221-.25413204-1.3057216.009-1.917.23433004-.5985898.69799816-1.0788175 1.288-1.334l1.534-.453c.31297501-.092367.56119638-.33163.665-.641 1.05340482-3.1148522 1.80748225-6.3230298 2.252-9.581 3.839473-.0414638 7.3522594-2.1687533 9.168-5.552 2.6977061 1.1686534 5.8108756.8353165 8.2-.878 1.4121829 1.1972572 3.2388007 1.7906834 5.085 1.652 2.4366636-.0748555 4.7850524-.9293886 6.7-2.438.7944778 2.3388633 2.6613568 4.1555475 5.021 4.886.5204737 1.7971437 1.9294969 3.1997433 3.729 3.712-.105337 2.4623227.0515455 4.9288654.468 7.358l-.029.159c-.0829836.4620465.1666004.9196171.6 1.1l1.582.661c1.2617695.5429709 1.8583671 1.9947064 1.343 3.268z"/><path id="Shape" d="m21 30c0-1.6568542-1.3431458-3-3-3s-3 1.3431458-3 3 1.3431458 3 3 3 3-1.3431458 3-3zm-3 1c-.5522847 0-1-.4477153-1-1s.4477153-1 1-1 1 .4477153 1 1-.4477153 1-1 1z"/><path id="Shape" d="m36 27c-1.6568542 0-3 1.3431458-3 3s1.3431458 3 3 3 3-1.3431458 3-3-1.3431458-3-3-3zm0 4c-.5522847 0-1-.4477153-1-1s.4477153-1 1-1 1 .4477153 1 1-.4477153 1-1 1z"/><path id="Shape" d="m34 37h-14c-.5522847 0-1 .4477153-1 1v1c0 4.418278 3.581722 8 8 8s8-3.581722 8-8v-1c0-.5522847-.4477153-1-1-1zm-9.539 7.428c.5388555-.886783 1.5013346-1.4281714 2.539-1.4281714s2.0001445.5413884 2.539 1.4281714c-1.6067555.7626768-3.4712445.7626768-5.078 0zm6.722-1.135c-.9114023-1.4283591-2.4886376-2.2929262-4.183-2.2929262s-3.2715977.8645671-4.183 2.2929262c-1.1616529-1.1261573-1.8172297-2.6750793-1.8170001-4.293h12.0000002c.0002296 1.6179207-.6553472 3.1668427-1.8170001 4.293z"/><path id="Shape" d="m26 35h2c.5522847 0 1-.4477153 1-1s-.4477153-1-1-1h-2c-.5522847 0-1 .4477153-1 1s.4477153 1 1 1z"/><path id="Shape" d="m16 26h3c.5522847 0 1-.4477153 1-1s-.4477153-1-1-1h-3c-.5522847 0-1 .4477153-1 1s.4477153 1 1 1z"/><path id="Shape" d="m38 24h-3c-.5522847 0-1 .4477153-1 1s.4477153 1 1 1h3c.5522847 0 1-.4477153 1-1s-.4477153-1-1-1z"/></g></g></g></svg>